# AST/ASF file generated using VICON BodyLanguage
# -----------------------------------------------
:version 1.10
:name VICON
:units
  mass 1.0
  length 0.45
  angle deg
:documentation
   .ast/.asf automatically generated from VICON data using
   VICON BodyBuilder and BodyLanguage model FoxedUp or BRILLIANT.MOD
:root
   order TX TY TZ RX RY RZ
   axis XYZ
   position 0 0 0  
   orientation 0 0 0 
:bonedata
  begin
     id 1 
     name lhipjoint
     direction 0.588788 -0.725889 0.355548 
     length 2.37778 
     axis 0 0 0  XYZ
  end
  begin
     id 2 
     name lfemur
     direction 0.34202 -0.939693 0  
     length 6.86393  
     axis 0 0 20  XYZ
    dof rx ry rz
    limits (-160.0 20.0)
           (-70.0 70.0)
           (-60.0 70.0)
  end
  begin
     id 3 
     name ltibia
     direction 0.34202 -0.939693 0   
     length 7.32851   
     axis 0 0 20   XYZ
    dof rx
    limits (-10.0 170.0)
  end
  begin
     id 4 
     name lfoot
     direction 0.0626533 -0.172138 0.983078   
     length 1.98929   
     axis -90 7.62852e-016 20   XYZ
    dof rx rz
    limits (-45.0 90.0)
           (-70.0 20.0)
  end
  begin
     id 5 
     name ltoes
     direction 1.53647e-011 -4.21734e-011 1   
     length 1.00479   
     axis -90 7.62852e-016 20   XYZ
    dof rx
    limits (-90.0 20.0)
  end
  begin
     id 6 
     name rhipjoint
     direction -0.59141 -0.724168 0.354705   
     length 2.38343  
     axis 0 0 0  XYZ 
  end
  begin
     id 7 
     name rfemur
     direction -0.34202 -0.939693 0   
     length 6.95589   
     axis 0 0 -20   XYZ
    dof rx ry rz
    limits (-160.0 20.0)
           (-70.0 70.0)
           (-70.0 60.0)
  end
  begin
     id 8 
     name rtibia
     direction -0.34202 -0.939693 0   
     length 7.32327   
     axis 0 0 -20   XYZ
    dof rx
    limits (-10.0 170.0)
 end
 begin
     id 9 
     name rfoot
     direction -0.0660461 -0.18146 0.981178   
     length 1.85272  
     axis -90 -7.62852e-016 -20   XYZ
    dof rx rz
    limits (-45.0 90.0)
           (-20.0 70.0)
  end
  begin
     id 10 
     name rtoes
     direction -1.53586e-011 -4.21988e-011 1   
     length 0.93746   
     axis -90 -7.62852e-016 -20   XYZ
    dof rx
    limits (-90.0 20.0)
  end
  begin
     id 11 
     name lowerback
     direction -0.0107982 0.991059 0.13299   
     length 1.98691   
     axis 0 0 0   XYZ
    dof rx ry rz
    limits (-20.0 45.0)
           (-30.0 30.0)
           (-30.0 30.0)
  end
  begin
     id 12 
     name upperback
     direction 0.0076296 0.999916 0.0104576   
     length 1.99501   
     axis 0 0 0   XYZ
    dof rx ry rz
    limits (-20.0 45.0)
           (-30.0 30.0)
           (-30.0 30.0)
  end
  begin
     id 13 
     name thorax
     direction 0.01176 0.998615 -0.0512909   
     length 2.03144   
     axis 0 0 0   XYZ
    dof rx ry rz
    limits (-20.0 45.0)
           (-30.0 30.0)
           (-30.0 30.0)
  end
  begin
     id 14 
     name lowerneck
     direction -0.0171909 0.999644 0.0204011   
     length 1.71818   
     axis 0 0 0   XYZ
    dof rx ry rz
    limits (-20.0 45.0)
           (-30.0 30.0)
           (-30.0 30.0)
  end
  begin
     id 15 
     name upperneck
     direction 0.0250902 0.997482 -0.0663316   
     length 1.66199   
     axis 0 0 0   XYZ
    dof rx ry rz
    limits (-20.0 45.0)
           (-30.0 30.0)
           (-30.0 30.0)
  end
  begin
     id 16
     name head
     direction 0.00881535 0.99956 -0.0283365  
     length 1.81545  
     axis 0 0 0   XYZ
    dof rx ry rz
    limits (-20.0 45.0)
           (-30.0 30.0)
           (-30.0 30.0)
  end
  begin
     id 17 
     name lclavicle
     direction 0.840411 0.486876 -0.238035  
     length 3.30409  
     axis 0 0 0   XYZ
    dof ry rz
    limits (-20.0 10.0)
           (0.0 20.0)
  end
  begin
     id 18 
     name lhumerus
     direction 1 -4.48977e-011 -5.16239e-027   
     length 4.62672   
     axis 180 -30 -90   XYZ
    dof rx ry rz
    limits (-60.0 90.0)
           (-90.0 90.0)
           (-90.0 90.0)
  end
  begin
     id 19
     name lradius
     direction 1 -4.48977e-011 -8.71171e-027   
     length 3.11018   
     axis 180 -30 -90   XYZ
    dof rx
    limits (-10.0 170.0)
  end
  begin
     id 20
     name lwrist
     direction 1 -4.48912e-011 -1.03764e-026   
     length 1.55509   
     axis 9.09556e-015 90 90   XYZ
    dof ry
    limits (-180.0 0.0)
 end
  begin
     id 21 
     name lhand
     direction 1 -4.49072e-011 -2.07528e-026   
     length 0.743834   
     axis 1.3242e-014 90 90   XYZ
    dof rx rz
    limits (-90.0 90.0)
           (-45.0 45.0)
  end
  begin
     id 22 
     name lfingers
     direction 1 -4.48909e-011 -4.15056e-026   
     length 0.599698   
     axis 2.64841e-014 90 90   XYZ
    dof rx
    limits (0.0 90.0)
  end
  begin
     id 23
     name lthumb
     direction 0.707107 -6.35013e-011 0.707107   
     length 0.86105   
     axis -90 45 2.85299e-015   XYZ
    dof rx rz
    limits (-45.0 45.0)
           (-45.0 45.0)
  end
  begin
     id 24 
     name rclavicle
     direction -0.835208 0.500237 -0.228452   
     length 3.2716  
     axis 0 0 0   XYZ 
    dof ry rz
    limits (-10.0 20.0)
           (-20.0 0.0)
  end
  begin
     id 25 
     name rhumerus
     direction -1 -4.48978e-011 -5.1953e-028  
     length 4.55919   
     axis 180 30 90   XYZ
    dof rx ry rz
    limits (-90.0 60.0)
           (-90.0 90.0)
           (-90.0 90.0)
  end
  begin
     id 26 
     name rradius
     direction -1 -4.48961e-011 -5.99546e-027   
     length 3.22748   
     axis 180 30 90   XYZ
    dof rx
    limits (-10.0 170.0)
  end
  begin
     id 27 
     name rwrist
     direction -1 -4.48986e-011 -1.03764e-026   
     length 1.61374   
     axis 9.09556e-015 -90 -90   XYZ
    dof ry
    limits (-180.0 0.0)
  end
  begin
     id 28
     name rhand
     direction -1 -4.4899e-011 -2.07528e-026   
     length 0.700882   
     axis 1.3242e-014 -90 -90   XYZ
    dof rx rz
    limits (-90.0 90.0)
           (-45.0 45.0)
  end
  begin
     id 29
     name rfingers
     direction -1 -4.48991e-011 -4.15056e-026   
     length 0.565069   
     axis 2.64841e-014 -90 -90   XYZ
    dof rx
    limits (0.0 90.0)
  end
  begin
     id 30
     name rthumb
     direction -0.707107 -6.34804e-011 0.707107   
     length 0.811329   
     axis -90 -45 -2.85299e-015   XYZ
    dof rx rz
    limits (-45.0 45.0)
           (-45.0 45.0)
  end
:hierarchy
  begin
    root lhipjoint rhipjoint lowerback
    lhipjoint lfemur
    lfemur ltibia
    ltibia lfoot
    lfoot ltoes
    rhipjoint rfemur
    rfemur rtibia
    rtibia rfoot
    rfoot rtoes
    lowerback upperback
    upperback thorax
    thorax lowerneck lclavicle rclavicle
    lowerneck upperneck
    upperneck head
    lclavicle lhumerus
    lhumerus lradius
    lradius lwrist
    lwrist lhand lthumb
    lhand lfingers
    rclavicle rhumerus
    rhumerus rradius
    rradius rwrist
    rwrist rhand rthumb
    rhand rfingers
  end

#!OML:ASF F:\VICON\USERDATA\INSTALL\SteveWalk\SteveWalk.ASF
:FULLY-SPECIFIED
:DEGREES
348
root -0.0399119 15.8996 25.4239 17.0012 6.87623 3.41713
lowerback -15.3609 -3.22655 -4.33795
upperback -4.93824 -3.62516 0.669696
thorax 3.658 -1.78605 2.4858
lowerneck -3.48502 -1.68195 -0.949649
upperneck 9.12467 -2.37978 2.02618
head 3.60644 -1.12967 0.731594
rclavicle 3.07511e-014 -7.55382e-015
rhumerus -75.2409 -40.4772 -26.2603
rradius 11.2768
rwrist 41.7751
rhand -14.6636 -33.347
rfingers 7.12502
rthumb 11.4892 -63.0121
lclavicle 3.07511e-014 -7.55382e-015
lhumerus -17.591 -11.2323 84.8477
lradius 41.0298
lwrist 6.16644
lhand -23.1224 -19.5956
lfingers 7.12502
lthumb 3.32489 10.3582
rfemur -48.1281 -6.68239 22.7789
rtibia 18.9163
rfoot -11.4472 5.12913
rtoes -15.3636
lfemur 0.228575 2.27605 -23.9215
ltibia 19.0445
lfoot -24.04 -8.32054
ltoes -28.2677
349
root -0.0267102 15.8934 25.6643 16.9452 6.9922 3.08947
lowerback -15.6336 -3.14708 -3.60504
upperback -4.9396 -3.62442 0.79726
thorax 3.76944 -1.78681 2.1957
lowerneck -3.75086 -1.6465 -1.03468
upperneck 9.35796 -2.31405 1.86604
head 3.73749 -1.10412 0.694948
rclavicle -1.39631e-014 -8.74653e-015
rhumerus -74.9406 -40.3141 -26.5031
rradius 11.276
rwrist 41.4377
rhand -14.6076 -33.5578
rfingers 7.12502
rthumb 11.5432 -63.2199
lclavicle -1.39631e-014 -8.74653e-015
lhumerus -17.836 -10.3424 84.9566
lradius 41.4615
lwrist 5.43644
lhand -22.9452 -19.0807
lfingers 7.12502
lthumb 3.496 10.8703
rfemur -48.1081 -6.76643 23.3401
rtibia 20.572
rfoot -10.6027 4.40537
rtoes -17.5457
lfemur 1.14697 1.61708 -23.4648
ltibia 18.7245
lfoot -23.5038 -7.88442
ltoes -32.0601
350
root -0.00931454 15.889 25.9014 16.7995 7.18147 2.78541
lowerback -15.8025 -3.05867 -2.82548
upperback -4.89448 -3.62595 0.901045
thorax 3.86977 -1.78845 1.85717
lowerneck -3.98661 -1.61494 -1.14695
upperneck 9.50296 -2.25014 1.72112
head 3.83303 -1.08085 0.66821
rclavicle -2.55671e-014 -2.0276e-014
rhumerus -74.7709 -40.263 -26.6671
rradius 11.4382
rwrist 41.1903
rhand -14.3909 -33.7269
rfingers 7.12502
rthumb 11.7522 -63.3772
lclavicle -2.55671e-014 -2.0276e-014
lhumerus -18.1918 -9.54159 85.1076
lradius 41.9711
lwrist 4.86127
lhand -22.796 -18.6789
lfingers 7.12502
lthumb 3.64007 11.2698
rfemur -48.1237 -7.33187 24.1154
rtibia 22.2896
rfoot -8.33429 4.14839
rtoes -24.5046
lfemur 1.92655 0.785532 -23.056
ltibia 18.5334
lfoot -22.4553 -8.17798
ltoes -33.5465
351
root 0.000105186 15.8938 26.1337 16.8072 7.11509 2.41999
lowerback -15.9642 -2.93396 -2.09749
upperback -4.99448 -3.57672 1.03117
thorax 3.81425 -1.76177 1.58977
lowerneck -3.90534 -1.53721 -1.18271
upperneck 9.56945 -2.12288 1.49663
head 3.83521 -1.02909 0.606455
rclavicle -2.22297e-014 1.59028e-015
rhumerus -75.1317 -40.3429 -26.0297
rradius 11.5207
rwrist 41.7483
rhand -14.5269 -33.5998
rfingers 7.12502
rthumb 11.621 -63.2576
lclavicle -2.22297e-014 1.59028e-015
lhumerus -18.9986 -8.97179 85.3246
lradius 42.6372
lwrist 5.50355
lhand -22.5169 -19.0305
lfingers 7.12502
lthumb 3.90962 10.9133
rfemur -48.2608 -7.19104 24.4558
rtibia 23.8936
rfoot -6.72275 4.20046
rtoes -29.0441
lfemur 2.40439 0.149912 -22.634
ltibia 18.7212
lfoot -20.3502 -9.52168
ltoes -31.1801
352
root -0.00052412 15.9022 26.3668 16.984 6.7908 2.05559
lowerback -16.1998 -2.76566 -1.53289
upperback -5.16341 -3.44641 1.19053
thorax 3.73346 -1.69495 1.45945
lowerneck -3.74801 -1.48466 -1.12031
upperneck 9.53808 -2.02138 1.11509
head 3.78476 -0.993669 0.474818
rclavicle 5.8393e-016 2.38542e-015
rhumerus -75.4111 -40.4888 -25.3327
rradius 11.4473
rwrist 42.3562
rhand -14.7447 -33.3078
rfingers 7.12502
rthumb 11.411 -62.9773
lclavicle 5.8393e-016 2.38542e-015
lhumerus -19.8214 -8.39392 85.584
lradius 43.1911
lwrist 6.58353
lhand -22.1046 -19.6219
lfingers 7.12502
lthumb 4.3078 10.3143
rfemur -48.5541 -6.53484 24.5357
rtibia 25.3777
rfoot -5.47234 4.2306
rtoes -29.1894
lfemur 2.49887 -0.375982 -22.2729
ltibia 19.4825
lfoot -18.228 -10.4884
ltoes -29.4629
353
root -0.0056259 15.9015 26.5919 17.211 6.41896 1.63642
lowerback -16.4816 -2.5687 -0.988659
upperback -5.28793 -3.27856 1.37542
thorax 3.72667 -1.61072 1.37191
lowerneck -3.76368 -1.48053 -1.03833
upperneck 9.47102 -1.98651 0.750194
head 3.75721 -0.988995 0.341537
rclavicle -1.78906e-014 1.23246e-014
rhumerus -75.1306 -40.6201 -25.3708
rradius 11.3511
rwrist 42.3576
rhand -14.663 -33.3227
rfingers 7.12502
rthumb 11.4898 -62.9878
lclavicle -1.78906e-014 1.23246e-014
lhumerus -20.4076 -7.74709 85.8008
lradius 43.5457
lwrist 7.09955
lhand -21.9032 -19.8678
lfingers 7.12502
lthumb 4.50226 10.0643
rfemur -48.853 -5.59874 24.5341
rtibia 26.7544
rfoot -3.47529 3.57232
rtoes -19.74
lfemur 2.17031 -0.830563 -21.8793
ltibia 20.9462
lfoot -17.2834 -10.0466
ltoes -32.5445
354
root -0.00132004 15.8966 26.8147 17.4627 6.09382 1.3076
lowerback -16.8224 -2.37573 -0.408252
upperback -5.39242 -3.12259 1.51097
thorax 3.76927 -1.53299 1.20773
lowerneck -3.92793 -1.44583 -1.01656
upperneck 9.516 -1.91605 0.496654
head 3.80079 -0.963824 0.255933
rclavicle 2.90474e-014 5.1684e-015
rhumerus -75.0627 -40.9059 -25.0442
rradius 11.2703
rwrist 42.7588
rhand -14.5596 -33.1563
rfingers 7.12502
rthumb 11.5895 -62.8158
lclavicle 2.90474e-014 5.1684e-015
lhumerus -21.0754 -6.98496 85.9744
lradius 43.8826
lwrist 7.02778
lhand -21.9321 -19.9433
lfingers 7.12502
lthumb 4.47433 9.98942
rfemur -49.1134 -4.76331 24.4213
rtibia 28.0976
rfoot -2.47622 2.63644
rtoes -11.1565
lfemur 1.4754 -1.14459 -21.6132
ltibia 23.0187
lfoot -16.1877 -9.81443
ltoes -34.4141
355
root 0.0147167 15.8976 27.045 17.5782 5.91775 0.963792
lowerback -16.9663 -2.19872 0.36373
upperback -5.5637 -3.02023 1.64534
thorax 3.62952 -1.48288 0.933122
lowerneck -4.01197 -1.33382 -1.10659
upperneck 9.73076 -1.73577 0.263111
head 3.89001 -0.888218 0.20155
rclavicle -7.92654e-015 5.1684e-015
rhumerus -75.7173 -41.4054 -23.5037
rradius 11.1345
rwrist 44.1484
rhand -14.5091 -32.9535
rfingers 7.12502
rthumb 11.6382 -62.6103
lclavicle -7.92654e-015 5.1684e-015
lhumerus -22.1401 -6.05246 86.2124
lradius 44.3467
lwrist 6.82587
lhand -22.0142 -19.9513
lfingers 7.12502
lthumb 4.39506 9.98306
rfemur -49.1632 -4.33199 24.4962
rtibia 29.4736
rfoot -3.32757 2.52201
rtoes -15.8617
lfemur 0.648294 -1.3795 -21.3135
ltibia 25.5111
lfoot -13.6857 -11.0588
ltoes -31.0745
356
root 0.0323689 15.9023 27.273 17.5899 5.78642 0.491911
lowerback -16.9977 -2.03356 1.26495
upperback -5.7024 -2.95655 1.82877
thorax 3.46232 -1.4542 0.633018
lowerneck -4.1196 -1.19478 -1.1464
upperneck 9.95589 -1.516 -0.0245209
head 3.98697 -0.794301 0.122055
rclavicle 1.20886e-014 3.97569e-015
rhumerus -75.4529 -41.5991 -23.3063
rradius 11.1044
rwrist 44.5567
rhand -14.2664 -33.4226
rfingers 7.12502
rthumb 11.8723 -63.0661
lclavicle 1.20886e-014 3.97569e-015
lhumerus -23.1781 -5.08604 86.4259
lradius 44.7178
lwrist 6.63725
lhand -22.1901 -19.8707
lfingers 7.12502
lthumb 4.22516 10.0672
rfemur -49.056 -4.06948 24.8834
rtibia 30.8162
rfoot -5.12505 2.8947
rtoes -22.1753
lfemur -0.336378 -1.37117 -20.8395
ltibia 28.3084
lfoot -10.47 -12.5393
ltoes -26.9249
357
root 0.0437308 15.9113 27.4902 17.5713 5.47948 0.152909
lowerback -17.0182 -1.87229 1.88238
upperback -5.73545 -2.8524 1.9744
thorax 3.41441 -1.40502 0.458917
lowerneck -4.17196 -1.08558 -1.09638
upperneck 9.93379 -1.34868 -0.262458
head 3.98573 -0.720345 0.0420047
rclavicle 9.21864e-015 -1.27222e-014
rhumerus -74.2637 -41.5611 -24.5861
rradius 11.241
rwrist 43.8793
rhand -14.1135 -33.7289
rfingers 7.12502
rthumb 12.0197 -63.3637
lclavicle 9.21864e-015 -1.27222e-014
lhumerus -23.9888 -4.40199 86.5699
lradius 44.9058
lwrist 6.84586
lhand -22.3534 -20.0265
lfingers 7.12502
lthumb 4.06752 9.91445
rfemur -48.9001 -3.60473 25.1245
rtibia 32.0865
rfoot -6.33697 3.45023
rtoes -21.6328
lfemur -1.52539 -1.06796 -20.5435
ltibia 31.2783
lfoot -6.96341 -13.5617
ltoes -23.7692
358
root 0.0425685 15.923 27.6935 17.4379 5.02972 0.015391
lowerback -16.7581 -1.70079 2.09495
upperback -5.66941 -2.66096 2.06793
thorax 3.342 -1.31179 0.481485
lowerneck -4.51515 -1.01203 -1.03045
upperneck 9.9173 -1.23103 -0.45661
head 4.0453 -0.668598 -0.0304415
rclavicle 1.88845e-014 1.19271e-014
rhumerus -73.1059 -41.7906 -25.8385
rradius 11.4355
rwrist 43.2257
rhand -13.9787 -33.7696
rfingers 7.12502
rthumb 12.1496 -63.3968
lclavicle 1.88845e-014 1.19271e-014
lhumerus -24.5703 -3.85676 86.7319
lradius 44.9511
lwrist 7.18301
lhand -22.4558 -20.3154
lfingers 7.12502
lthumb 3.96864 9.62738
rfemur -48.6025 -2.77926 25.0019
rtibia 33.2418
rfoot -6.54662 3.91568
rtoes -14.8526
lfemur -2.79643 -0.634513 -20.4541
ltibia 34.2984
lfoot -2.95885 -14.1889
ltoes -19.5116
359
root 0.0366317 15.9387 27.8961 17.2423 4.57368 -0.0700522
lowerback -16.3365 -1.51292 2.1904
upperback -5.60107 -2.42138 2.13757
thorax 3.19092 -1.19514 0.557072
lowerneck -5.05192 -0.992634 -1.07381
upperneck 10.052 -1.18248 -0.558168
head 4.20028 -0.65204 -0.0580788
rclavicle 2.07481e-015 -1.27222e-014
rhumerus -72.7861 -42.4543 -25.795
rradius 11.4646
rwrist 43.4924
rhand -13.9738 -33.5069
rfingers 7.12502
rthumb 12.1543 -63.1338
lclavicle 2.07481e-015 -1.27222e-014
lhumerus -25.0856 -3.31035 86.9531
lradius 44.8074
lwrist 7.19226
lhand -22.6666 -20.3711
lfingers 7.12502
lthumb 3.76502 9.57542
rfemur -48.0759 -2.04298 24.9075
rtibia 34.223
rfoot -6.02322 4.02015
rtoes -8.39279
lfemur -4.07997 -0.273748 -20.3734
ltibia 37.2662
lfoot 1.90274 -14.4797
ltoes -13.9322
